<svg version="1.1" id="Layer_1" xmlns="http://www.w3.org/2000/svg" xmlns:xlink="http://www.w3.org/1999/xlink" x="0px" y="0px"
	 width="100%" viewBox="0 0 512 512" enable-background="new 0 0 512 512" xml:space="preserve">
<path fill="#000000" opacity="1.000000" stroke="none" 
	d="
M104.000000,513.000000 
	C69.688385,513.000000 35.376766,513.000000 1.060245,513.000000 
	C1.055341,342.333313 1.055341,171.666656 1.055341,1.000000 
	C26.428015,1.000000 51.745350,1.000000 77.906769,1.189542 
	C78.050644,2.002039 77.361099,2.637483 76.648430,3.245841 
	C73.043091,6.323506 69.286896,9.454719 69.142006,14.635330 
	C68.948769,21.544598 69.185555,28.465891 69.135315,35.804710 
	C69.078972,48.462223 69.124954,60.697048 69.095627,73.401382 
	C69.076920,80.219688 69.133522,86.568481 69.103455,93.381119 
	C69.011101,218.559006 69.005089,343.273041 69.005623,467.987091 
	C69.005623,468.983093 69.094551,469.979065 69.069839,471.418762 
	C69.003281,483.972656 75.112106,491.720856 85.003487,492.011108 
	C89.965576,492.156708 94.933914,492.089172 99.971588,492.511719 
	C101.362495,499.603577 102.681244,506.301788 104.000000,513.000000 
z"/>
<path fill="#000000" opacity="1.000000" stroke="none" 
	d="
M436.000000,1.000001 
	C461.650421,1.000000 487.300873,1.000000 512.975647,1.000000 
	C512.975647,171.542511 512.975647,342.085052 512.975647,513.000000 
	C478.980011,513.000000 444.958679,513.000000 410.313934,512.625732 
	C411.130646,505.541199 412.570740,498.831024 414.476624,492.079865 
	C419.577362,492.035950 424.235565,492.328308 428.842010,491.964813 
	C436.912964,491.327942 444.104492,486.464478 445.298767,478.037476 
	C445.658081,477.643127 445.761841,477.333710 445.938904,476.559204 
	C446.016327,349.888397 446.020935,223.682770 446.017334,97.477119 
	C446.017303,96.315994 445.908020,95.154869 445.913818,93.760345 
	C445.977875,93.526947 445.943817,93.044083 446.021118,92.702271 
	C446.045807,91.897728 445.993225,91.435005 445.977692,90.506714 
	C446.027069,65.973167 446.055450,41.905163 446.009216,17.837305 
	C446.006622,16.481434 445.389832,15.126743 445.027710,13.422052 
	C442.396545,9.876641 439.767517,6.703571 437.219482,3.466732 
	C436.664307,2.761532 436.398865,1.828242 436.000000,1.000001 
z"/>
<path fill="#606D77" opacity="1.000000" stroke="none" 
	d="
M198.000000,1.000000 
	C266.687561,1.000000 335.375122,1.000000 404.540405,1.468587 
	C405.026733,10.047920 405.035339,18.158667 404.890045,26.415033 
	C404.470215,26.664759 404.230499,26.811613 403.551086,26.936192 
	C383.765930,26.856091 364.445557,26.948559 345.128143,26.748735 
	C340.421356,26.700048 338.520844,28.192671 338.660156,33.049660 
	C338.922699,42.202259 338.901886,51.371956 338.668213,60.526108 
	C338.547333,65.260933 340.271912,67.100845 345.068390,66.992561 
	C353.382935,66.804863 361.708038,67.083290 369.845093,67.451965 
	C367.895630,68.600380 366.207184,69.937691 364.350067,70.240517 
	C357.641052,71.334450 350.879211,72.804871 344.130310,72.841599 
	C295.669128,73.105370 247.206192,73.051285 198.560944,73.065475 
	C198.378082,73.032852 198.022308,72.926338 198.083374,72.465607 
	C198.024292,59.788967 197.904175,47.573051 197.937790,34.887070 
	C198.061020,23.278000 198.030502,12.139000 198.000000,1.000000 
M291.828033,41.791634 
	C293.715210,41.269299 295.573486,40.560665 297.495453,40.262737 
	C301.718384,39.608124 304.087311,37.290131 304.299103,33.030384 
	C304.501953,28.949514 301.672424,25.276926 297.357056,25.607918 
	C292.770477,25.959715 288.306152,27.905287 283.180908,28.853703 
	C280.447601,27.536324 277.714325,26.218945 274.279907,24.476471 
	C266.381989,22.662058 259.266998,24.407860 252.177689,28.915419 
	C247.654037,27.761410 243.168289,25.911350 238.595352,25.662352 
	C234.565445,25.442919 231.989151,28.547272 231.995682,32.837032 
	C232.002167,37.091045 234.419922,39.422192 238.561890,40.236324 
	C240.789673,40.674213 242.948013,41.465294 245.157425,42.971279 
	C245.133545,45.853367 245.109680,48.735458 244.321899,51.951897 
	C242.264359,52.426655 240.197174,52.863476 238.151337,53.384224 
	C234.141815,54.404808 231.750824,56.886421 232.009003,61.148991 
	C232.264832,65.372833 234.803970,67.621429 238.976852,68.125526 
	C243.969727,68.728668 248.453979,67.527267 252.983810,64.676781 
	C253.355545,64.775757 253.727264,64.874725 254.494858,65.531433 
	C264.284637,72.054230 272.835480,71.719742 284.376007,64.844803 
	C288.602875,65.941574 292.779144,67.578941 297.071075,67.980782 
	C301.237610,68.370895 303.834595,65.595505 304.283203,61.347244 
	C304.712616,57.280487 302.072235,54.185467 297.790588,53.285870 
	C295.555542,52.816277 293.355438,52.180328 291.102020,50.760513 
	C291.115479,47.850197 291.128967,44.939884 291.828033,41.791634 
M223.604416,54.967651 
	C220.115570,54.024685 216.940414,54.792427 215.911758,58.340019 
	C215.335526,60.327320 215.963348,63.291512 217.176056,65.028381 
	C219.192734,67.916733 223.452621,67.577423 225.894257,64.962379 
	C228.685165,61.973309 228.160736,58.810226 223.604416,54.967651 
M224.546738,27.516388 
	C221.861847,28.034655 218.754257,27.920904 216.659714,29.321819 
	C215.508774,30.091618 215.254944,33.814068 216.077087,35.470333 
	C216.903015,37.134193 219.570648,38.790680 221.424255,38.782963 
	C223.284103,38.775211 226.373367,36.981071 226.702072,35.482521 
	C227.202805,33.199608 225.789948,30.496948 224.546738,27.516388 
M320.953369,62.146126 
	C319.821533,59.810902 319.207977,56.818996 317.374908,55.372375 
	C316.162109,54.415272 312.624207,54.968422 311.182892,56.141956 
	C309.750366,57.308315 308.767151,60.300270 309.192261,62.115807 
	C309.616608,63.928387 312.163208,66.656258 313.544373,66.524208 
	C316.040833,66.285530 318.362305,64.216805 320.953369,62.146126 
M321.051849,33.360073 
	C320.204376,28.271509 317.693756,26.086527 313.618256,26.890654 
	C310.173706,27.570288 307.675568,31.157671 309.163086,34.410908 
	C310.041199,36.331333 312.365723,38.317375 314.398346,38.818039 
	C317.715424,39.635098 320.011261,37.470901 321.051849,33.360073 
z"/>
<path fill="#4E5A61" opacity="1.000000" stroke="none" 
	d="
M198.743820,73.098091 
	C247.206192,73.051285 295.669128,73.105370 344.130310,72.841599 
	C350.879211,72.804871 357.641052,71.334450 364.350067,70.240517 
	C366.207184,69.937691 367.895630,68.600380 370.239288,67.387436 
	C371.878479,66.957115 372.939819,66.877075 374.462769,66.877441 
	C388.070953,66.971420 401.218262,66.913094 414.363708,67.041336 
	C418.433899,67.081032 420.063324,65.365173 420.020752,61.369442 
	C419.918030,51.718449 419.865326,42.063305 420.045135,32.414543 
	C420.127106,28.015676 418.074005,26.439322 414.017883,26.470219 
	C411.027252,26.493002 408.035309,26.342634 405.043945,26.269413 
	C405.035339,18.158667 405.026733,10.047920 405.009064,1.468587 
	C415.020905,1.000000 425.041779,1.000000 435.531342,1.000001 
	C436.398865,1.828242 436.664307,2.761532 437.219482,3.466732 
	C439.767517,6.703571 442.396545,9.876641 444.982269,13.903757 
	C444.965881,38.206882 444.940643,61.678917 445.003998,85.150711 
	C445.009247,87.092064 445.614258,89.031799 445.940613,90.972282 
	C445.993225,91.435005 446.045807,91.897728 445.789185,92.604660 
	C445.319427,92.897804 445.158905,92.946739 444.531372,92.954178 
	C431.039673,92.954025 418.014984,92.995369 404.529236,92.976807 
	C353.134552,92.904541 302.200989,92.902916 251.267410,92.873947 
	C233.625443,92.863914 215.983490,92.786049 198.419861,92.295502 
	C198.580078,85.600578 198.661942,79.349335 198.743820,73.098091 
z"/>
<path fill="#000000" opacity="1.000000" stroke="none" 
	d="
M388.000000,513.000000 
	C301.312439,513.000000 214.624878,513.000000 127.303192,512.614136 
	C128.117767,505.536865 129.566452,498.845490 131.479980,492.098389 
	C155.069153,492.037933 178.193497,492.022491 201.317841,492.030762 
	C262.205444,492.052551 323.093079,492.084656 383.991302,492.531891 
	C385.334625,499.634064 386.667328,506.317047 388.000000,513.000000 
z"/>
<path fill="#DADEE4" opacity="1.000000" stroke="none" 
	d="
M197.531342,1.000000 
	C198.030502,12.139000 198.061020,23.278000 197.492722,34.828766 
	C184.925491,35.184494 172.956940,35.060818 160.988693,35.085663 
	C130.404922,35.149155 99.821312,35.278820 69.237633,35.382019 
	C69.185555,28.465891 68.948769,21.544598 69.142006,14.635330 
	C69.286896,9.454719 73.043091,6.323506 76.648430,3.245841 
	C77.361099,2.637483 78.050644,2.002039 78.375427,1.189542 
	C117.687561,1.000000 157.375122,1.000000 197.531342,1.000000 
z"/>
<path fill="#616E77" opacity="1.000000" stroke="none" 
	d="
M131.015152,492.154144 
	C129.566452,498.845490 128.117767,505.536865 126.834534,512.614136 
	C119.645744,513.000000 112.291496,513.000000 104.468620,513.000000 
	C102.681244,506.301788 101.362495,499.603577 100.367592,492.368408 
	C110.799347,491.939026 120.907249,492.046570 131.015152,492.154144 
z"/>
<path fill="#616E77" opacity="1.000000" stroke="none" 
	d="
M388.468567,513.000000 
	C386.667328,506.317047 385.334625,499.634064 384.351044,492.329041 
	C394.470367,491.844910 404.240601,491.982880 414.010803,492.120819 
	C412.570740,498.831024 411.130646,505.541199 409.845276,512.625732 
	C402.979034,513.000000 395.958099,513.000000 388.468567,513.000000 
z"/>
<path fill="#DADEE4" opacity="1.000000" stroke="none" 
	d="
M198.341537,92.739174 
	C215.983490,92.786049 233.625443,92.863914 251.267410,92.873947 
	C302.200989,92.902916 353.134552,92.904541 404.561279,93.442215 
	C405.050201,186.925888 405.079773,279.884308 404.953552,372.842499 
	C404.946381,378.116760 403.662262,383.389343 402.508789,388.724762 
	C397.306854,388.858124 392.568604,388.929382 387.386536,388.935181 
	C383.002411,388.912750 379.062042,388.955750 374.646851,388.958649 
	C367.125763,388.972595 360.079529,389.026611 352.563965,389.040558 
	C345.637085,388.984528 339.178650,388.896851 332.722198,388.974762 
	C327.285950,389.040314 325.884796,390.363586 325.866699,395.758972 
	C325.816101,410.826141 325.901215,425.893738 325.795197,441.345337 
	C325.602112,446.173340 325.426117,450.619873 325.527222,455.060120 
	C325.616089,458.963135 327.586182,461.125732 331.744965,461.062866 
	C335.862518,461.000641 339.983154,461.141785 343.851593,461.428040 
	C331.048920,468.088440 317.648438,471.045013 303.622314,471.058319 
	C238.460175,471.120148 173.297943,471.109650 108.135750,471.105896 
	C95.137817,471.105133 82.139893,471.020844 69.141960,470.975067 
	C69.094551,469.979065 69.005623,468.983093 69.005623,467.987091 
	C69.005089,343.273041 69.011101,218.559006 69.559738,93.396790 
	C100.378014,92.954308 130.653366,92.982124 160.928665,92.955048 
	C173.399673,92.943893 185.870590,92.814682 198.341537,92.739174 
M359.807373,301.629944 
	C366.823364,286.115753 369.618134,269.848602 369.071991,252.850555 
	C368.598572,238.115295 365.801331,224.031799 359.020355,210.112991 
	C347.912354,186.230011 330.689697,168.268661 306.571045,156.058167 
	C284.677277,145.888672 261.772766,142.063217 237.981400,146.552826 
	C185.107025,156.530563 148.476028,197.815552 145.681580,251.591766 
	C143.826157,287.297241 157.261932,317.204315 184.311020,341.634766 
	C221.221741,371.084686 261.564850,377.070618 304.754700,357.856506 
	C330.002594,346.624329 348.237427,327.655426 359.807373,301.629944 
M147.500000,432.118988 
	C156.656937,432.092621 165.814972,432.140472 174.970276,432.004242 
	C178.770477,431.947723 181.287582,429.920471 181.813339,426.042236 
	C182.323929,422.276001 180.667923,419.540588 177.142487,418.134125 
	C175.778305,417.589966 174.245331,417.203552 172.787796,417.198822 
	C153.641144,417.136505 134.493683,417.075256 115.347740,417.205688 
	C110.027718,417.241943 106.085342,421.025116 106.244881,425.218994 
	C106.405487,429.440979 109.840050,432.061432 115.531464,432.093781 
	C125.854027,432.152405 136.177124,432.116241 147.500000,432.118988 
M132.634537,442.898895 
	C131.302170,442.913666 129.969238,442.908447 128.637558,442.946930 
	C124.175400,443.075836 121.320793,445.079865 121.038063,449.784027 
	C120.753151,454.524536 123.577141,457.322083 127.813446,457.468903 
	C138.615234,457.843292 149.450531,457.886108 160.248245,457.455353 
	C165.120590,457.260986 167.428574,453.776398 167.026459,449.270416 
	C166.593658,444.420868 163.464661,442.901978 159.086258,442.910248 
	C150.591400,442.926300 142.096466,442.904236 132.634537,442.898895 
z"/>
<path fill="#B4BCC9" opacity="1.000000" stroke="none" 
	d="
M69.069839,471.418762 
	C82.139893,471.020844 95.137817,471.105133 108.135750,471.105896 
	C173.297943,471.109650 238.460175,471.120148 303.622314,471.058319 
	C317.648438,471.045013 331.048920,468.088440 344.303619,461.380371 
	C365.641266,461.079651 386.276062,461.076569 406.910797,461.033661 
	C413.992126,461.018921 415.041107,459.988586 415.055817,452.954376 
	C415.091339,435.980499 414.956573,419.005493 415.104584,402.032806 
	C415.235260,387.049713 414.231812,389.321564 402.972473,388.662689 
	C403.662262,383.389343 404.946381,378.116760 404.953552,372.842499 
	C405.079773,279.884308 405.050201,186.925888 405.022339,93.502113 
	C418.014984,92.995369 431.039673,92.954025 444.668701,93.124390 
	C445.457306,93.562317 445.649536,93.781532 445.849731,93.993744 
	C445.908020,95.154869 446.017303,96.315994 446.017334,97.477119 
	C446.020935,223.682770 446.016327,349.888397 445.799988,476.740875 
	C445.423523,477.645416 445.241974,477.890350 445.043152,478.122467 
	C444.104492,486.464478 436.912964,491.327942 428.842010,491.964813 
	C424.235565,492.328308 419.577362,492.035950 414.476624,492.079865 
	C404.240601,491.982880 394.470367,491.844910 384.340424,491.909790 
	C323.093079,492.084656 262.205444,492.052551 201.317841,492.030762 
	C178.193497,492.022491 155.069153,492.037933 131.479980,492.098389 
	C120.907249,492.046570 110.799347,491.939026 100.295441,491.974731 
	C94.933914,492.089172 89.965576,492.156708 85.003487,492.011108 
	C75.112106,491.720856 69.003281,483.972656 69.069839,471.418762 
z"/>
<path fill="#81B7FC" opacity="1.000000" stroke="none" 
	d="
M69.135315,35.804710 
	C99.821312,35.278820 130.404922,35.149155 160.988693,35.085663 
	C172.956940,35.060818 184.925491,35.184494 197.338974,35.298832 
	C197.904175,47.573051 198.024292,59.788967 197.613281,72.474060 
	C154.445084,72.939453 111.808006,72.935661 69.170929,72.931870 
	C69.124954,60.697048 69.078972,48.462223 69.135315,35.804710 
M118.527489,35.992023 
	C114.683075,35.992023 110.838661,35.992023 106.148819,35.992023 
	C107.825317,42.201683 109.044144,46.997295 110.422523,51.746601 
	C111.956001,57.030342 115.685501,59.782383 121.076385,59.890484 
	C129.547684,60.060356 138.026199,60.041595 146.498764,59.912811 
	C151.486359,59.836998 155.059570,57.394249 156.601105,52.521545 
	C157.752701,48.881359 158.479599,45.098621 159.760696,41.509686 
	C161.342896,37.077202 159.617966,35.906403 155.413376,35.951923 
	C143.449936,36.081440 131.484131,35.994015 118.527489,35.992023 
z"/>
<path fill="#62A6FC" opacity="1.000000" stroke="none" 
	d="
M69.095627,73.401382 
	C111.808006,72.935661 154.445084,72.939453 197.552231,72.934792 
	C198.022308,72.926338 198.378082,73.032852 198.560944,73.065475 
	C198.661942,79.349335 198.580078,85.600578 198.419861,92.295502 
	C185.870590,92.814682 173.399673,92.943893 160.928665,92.955048 
	C130.653366,92.982124 100.378014,92.954308 69.646408,92.932945 
	C69.133522,86.568481 69.076920,80.219688 69.095627,73.401382 
z"/>
<path fill="#606D77" opacity="1.000000" stroke="none" 
	d="
M445.977692,90.506714 
	C445.614258,89.031799 445.009247,87.092064 445.003998,85.150711 
	C444.940643,61.678917 444.965881,38.206882 445.013489,14.253208 
	C445.389832,15.126743 446.006622,16.481434 446.009216,17.837305 
	C446.055450,41.905163 446.027069,65.973167 445.977692,90.506714 
z"/>
<path fill="#C0C6D2" opacity="1.000000" stroke="none" 
	d="
M445.913818,93.760345 
	C445.649536,93.781532 445.457306,93.562317 445.135742,93.165886 
	C445.158905,92.946739 445.319427,92.897804 445.711884,92.946472 
	C445.943817,93.044083 445.977875,93.526947 445.913818,93.760345 
z"/>
<path fill="#C0C6D2" opacity="1.000000" stroke="none" 
	d="
M445.298767,478.037476 
	C445.241974,477.890350 445.423523,477.645416 445.726685,477.205994 
	C445.761841,477.333710 445.658081,477.643127 445.298767,478.037476 
z"/>
<path fill="#D4E6F1" opacity="1.000000" stroke="none" 
	d="
M374.001190,66.797035 
	C372.939819,66.877075 371.878479,66.957115 370.422913,67.101700 
	C361.708038,67.083290 353.382935,66.804863 345.068390,66.992561 
	C340.271912,67.100845 338.547333,65.260933 338.668213,60.526108 
	C338.901886,51.371956 338.922699,42.202259 338.660156,33.049660 
	C338.520844,28.192671 340.421356,26.700048 345.128143,26.748735 
	C364.445557,26.948559 383.765930,26.856091 403.513245,27.325977 
	C400.248474,45.610882 389.513733,58.037136 374.001190,66.797035 
z"/>
<path fill="#81B8FC" opacity="1.000000" stroke="none" 
	d="
M245.085815,51.617546 
	C245.109680,48.735458 245.133545,45.853367 245.337250,42.240627 
	C247.951675,37.405125 250.386292,33.300270 252.820908,29.195415 
	C259.266998,24.407860 266.381989,22.662058 274.731018,25.029585 
	C275.966156,26.848280 276.738739,28.121107 277.536011,29.378283 
	C283.796478,39.250038 281.858185,52.127960 272.806763,59.554100 
	C267.398834,63.990974 260.965912,65.342293 254.098999,64.973701 
	C253.727264,64.874725 253.355545,64.775757 252.545502,64.292572 
	C249.766724,59.811432 247.426254,55.714489 245.085815,51.617546 
z"/>
<path fill="#A9CCE3" opacity="1.000000" stroke="none" 
	d="
M374.462769,66.877441 
	C389.513733,58.037136 400.248474,45.610882 403.979095,27.391001 
	C404.230499,26.811613 404.470215,26.664759 404.890045,26.415035 
	C408.035309,26.342634 411.027252,26.493002 414.017883,26.470219 
	C418.074005,26.439322 420.127106,28.015676 420.045135,32.414543 
	C419.865326,42.063305 419.918030,51.718449 420.020752,61.369442 
	C420.063324,65.365173 418.433899,67.081032 414.363708,67.041336 
	C401.218262,66.913094 388.070953,66.971420 374.462769,66.877441 
z"/>
<path fill="#63A6FB" opacity="1.000000" stroke="none" 
	d="
M254.296936,65.252563 
	C260.965912,65.342293 267.398834,63.990974 272.806763,59.554100 
	C281.858185,52.127960 283.796478,39.250038 277.536011,29.378283 
	C276.738739,28.121107 275.966156,26.848280 275.081573,25.242130 
	C277.714325,26.218945 280.447601,27.536324 283.658875,29.296471 
	C286.472046,33.836018 288.807251,37.932793 291.142426,42.029568 
	C291.128967,44.939884 291.115479,47.850197 290.984253,51.548698 
	C288.472931,56.354439 286.079407,60.371998 283.685883,64.389557 
	C272.835480,71.719742 264.284637,72.054230 254.296936,65.252563 
z"/>
<path fill="#D6DAE1" opacity="1.000000" stroke="none" 
	d="
M252.499298,29.055416 
	C250.386292,33.300270 247.951675,37.405125 245.327377,41.803493 
	C242.948013,41.465294 240.789673,40.674213 238.561890,40.236324 
	C234.419922,39.422192 232.002167,37.091045 231.995682,32.837032 
	C231.989151,28.547272 234.565445,25.442919 238.595352,25.662352 
	C243.168289,25.911350 247.654037,27.761410 252.499298,29.055416 
z"/>
<path fill="#D6DBE1" opacity="1.000000" stroke="none" 
	d="
M291.485229,41.910599 
	C288.807251,37.932793 286.472046,33.836018 283.962646,29.447077 
	C288.306152,27.905287 292.770477,25.959715 297.357056,25.607918 
	C301.672424,25.276926 304.501953,28.949514 304.299103,33.030384 
	C304.087311,37.290131 301.718384,39.608124 297.495453,40.262737 
	C295.573486,40.560665 293.715210,41.269299 291.485229,41.910599 
z"/>
<path fill="#D7DCE2" opacity="1.000000" stroke="none" 
	d="
M244.703857,51.784721 
	C247.426254,55.714489 249.766724,59.811432 252.275879,64.189873 
	C248.453979,67.527267 243.969727,68.728668 238.976852,68.125526 
	C234.803970,67.621429 232.264832,65.372833 232.009003,61.148991 
	C231.750824,56.886421 234.141815,54.404808 238.151337,53.384224 
	C240.197174,52.863476 242.264359,52.426655 244.703857,51.784721 
z"/>
<path fill="#D7DCE2" opacity="1.000000" stroke="none" 
	d="
M284.030945,64.617180 
	C286.079407,60.371998 288.472931,56.354439 291.002991,51.978203 
	C293.355438,52.180328 295.555542,52.816277 297.790588,53.285870 
	C302.072235,54.185467 304.712616,57.280487 304.283203,61.347244 
	C303.834595,65.595505 301.237610,68.370895 297.071075,67.980782 
	C292.779144,67.578941 288.602875,65.941574 284.030945,64.617180 
z"/>
<path fill="#D5D9DF" opacity="1.000000" stroke="none" 
	d="
M223.941971,55.095329 
	C228.160736,58.810226 228.685165,61.973309 225.894257,64.962379 
	C223.452621,67.577423 219.192734,67.916733 217.176056,65.028381 
	C215.963348,63.291512 215.335526,60.327320 215.911758,58.340019 
	C216.940414,54.792427 220.115570,54.024685 223.941971,55.095329 
z"/>
<path fill="#D5D9DF" opacity="1.000000" stroke="none" 
	d="
M224.868225,27.744463 
	C225.789948,30.496948 227.202805,33.199608 226.702072,35.482521 
	C226.373367,36.981071 223.284103,38.775211 221.424255,38.782963 
	C219.570648,38.790680 216.903015,37.134193 216.077087,35.470333 
	C215.254944,33.814068 215.508774,30.091618 216.659714,29.321819 
	C218.754257,27.920904 221.861847,28.034655 224.868225,27.744463 
z"/>
<path fill="#D6DAE1" opacity="1.000000" stroke="none" 
	d="
M320.855103,62.529190 
	C318.362305,64.216805 316.040833,66.285530 313.544373,66.524208 
	C312.163208,66.656258 309.616608,63.928387 309.192261,62.115807 
	C308.767151,60.300270 309.750366,57.308315 311.182892,56.141956 
	C312.624207,54.968422 316.162109,54.415272 317.374908,55.372375 
	C319.207977,56.818996 319.821533,59.810902 320.855103,62.529190 
z"/>
<path fill="#D6DBE1" opacity="1.000000" stroke="none" 
	d="
M321.009460,33.755478 
	C320.011261,37.470901 317.715424,39.635098 314.398346,38.818039 
	C312.365723,38.317375 310.041199,36.331333 309.163086,34.410908 
	C307.675568,31.157671 310.173706,27.570288 313.618256,26.890654 
	C317.693756,26.086527 320.204376,28.271509 321.009460,33.755478 
z"/>
<path fill="#606D76" opacity="1.000000" stroke="none" 
	d="
M359.117218,210.816956 
	C365.801331,224.031799 368.598572,238.115295 369.071991,252.850555 
	C369.618134,269.848602 366.823364,286.115753 359.184113,301.730713 
	C348.846588,299.517517 339.085327,297.379913 329.439728,294.808441 
	C325.189514,293.675385 322.955536,295.059570 320.240814,298.352142 
	C313.173126,306.924164 306.418152,316.148834 297.862549,323.029205 
	C265.326416,349.194519 228.690033,354.424805 189.184082,341.897705 
	C187.523987,341.371277 185.710114,341.329803 183.967880,341.062378 
	C157.261932,317.204315 143.826157,287.297241 145.681580,251.591766 
	C148.476028,197.815552 185.107025,156.530563 237.981400,146.552826 
	C261.772766,142.063217 284.677277,145.888672 306.903656,156.636215 
	C310.537445,161.554733 313.847046,165.888855 317.138245,170.236893 
	C326.324036,182.372360 332.426605,195.938736 335.951843,210.710648 
	C336.571014,213.305328 337.085602,216.478455 340.838379,215.629181 
	C346.979797,214.239319 353.029083,212.442261 359.117218,210.816956 
M338.976074,235.867859 
	C338.874146,239.345215 338.614075,242.829239 338.760376,246.296127 
	C338.808350,247.432709 339.710144,249.275848 340.566956,249.505203 
	C343.995392,250.422943 348.664093,246.971481 349.608215,243.223083 
	C350.564545,239.426208 348.233398,235.495331 344.191803,234.466751 
	C342.617859,234.066193 340.908600,234.197327 339.125366,233.182358 
	C338.747894,229.230179 338.278259,225.283966 338.021332,221.323959 
	C337.805603,217.999100 336.327148,217.114441 333.128082,217.883286 
	C328.152618,219.079041 323.097107,219.941696 317.810028,220.315704 
	C315.598938,217.221542 313.626282,213.919037 311.135956,211.068878 
	C299.646912,197.919785 285.609741,189.251419 267.124115,186.987244 
	C221.539505,180.985214 183.388046,217.243332 187.057007,263.807709 
	C188.771454,280.791931 195.744507,295.228790 208.306442,307.683380 
	C226.773636,325.058228 248.724564,330.755066 273.134796,325.488983 
	C292.854614,321.234833 308.044037,309.892548 318.873138,292.199310 
	C322.521149,293.475403 324.865723,292.253082 326.267517,288.645905 
	C327.226807,286.177307 328.526093,283.837555 329.724304,281.465912 
	C331.043793,278.854401 331.220825,276.847229 327.766907,275.701752 
	C324.125854,274.494202 322.850647,271.526123 322.866241,267.860718 
	C322.885284,263.375580 322.847595,258.890228 322.846741,254.404953 
	C322.843567,238.050125 322.845490,238.050125 338.976074,235.867859 
M338.319244,278.316559 
	C344.608124,279.426758 348.396454,277.737396 349.583740,273.293213 
	C350.722443,269.030975 348.176270,265.949921 342.472748,263.760590 
	C340.362335,262.950439 338.674591,261.039093 336.807556,259.640045 
	C335.850952,263.143982 335.155884,267.274902 333.583588,271.039398 
	C331.708954,275.527893 333.016235,277.550964 338.319244,278.316559 
z"/>
<path fill="#4F5B62" opacity="1.000000" stroke="none" 
	d="
M184.139450,341.348572 
	C185.710114,341.329803 187.523987,341.371277 189.184082,341.897705 
	C228.690033,354.424805 265.326416,349.194519 297.862549,323.029205 
	C306.418152,316.148834 313.173126,306.924164 320.240814,298.352142 
	C322.955536,295.059570 325.189514,293.675385 329.439728,294.808441 
	C339.085327,297.379913 348.846588,299.517517 358.937256,301.972900 
	C348.237427,327.655426 330.002594,346.624329 304.754700,357.856506 
	C261.564850,377.070618 221.221741,371.084686 184.139450,341.348572 
z"/>
<path fill="#62A6FD" opacity="1.000000" stroke="none" 
	d="
M402.508789,388.724762 
	C414.231812,389.321564 415.235260,387.049713 415.104584,402.032806 
	C414.956573,419.005493 415.091339,435.980499 415.055817,452.954376 
	C415.041107,459.988586 413.992126,461.018921 406.910797,461.033661 
	C386.276062,461.076569 365.641266,461.079651 344.554443,461.146057 
	C339.983154,461.141785 335.862518,461.000641 331.744965,461.062866 
	C327.586182,461.125732 325.616089,458.963135 325.527222,455.060120 
	C325.426117,450.619873 325.602112,446.173340 326.268738,441.353607 
	C332.362671,440.984924 337.845673,441.021851 343.328369,440.994049 
	C362.243591,440.898102 375.505066,427.073639 374.951233,408.055267 
	C375.036163,407.967468 375.206970,407.792847 375.590210,407.800873 
	C380.922211,408.106781 383.617065,405.565399 384.749054,400.943787 
	C385.727081,396.950714 386.799561,392.980804 387.830322,389.000641 
	C392.568604,388.929382 397.306854,388.858124 402.508789,388.724762 
z"/>
<path fill="#81B8FD" opacity="1.000000" stroke="none" 
	d="
M374.866333,408.143066 
	C375.505066,427.073639 362.243591,440.898102 343.328369,440.994049 
	C337.845673,441.021851 332.362671,440.984924 326.406250,440.969421 
	C325.901215,425.893738 325.816101,410.826141 325.866699,395.758972 
	C325.884796,390.363586 327.285950,389.040314 332.722198,388.974762 
	C339.178650,388.896851 345.637085,388.984528 352.601318,389.422729 
	C354.112854,393.699615 355.116302,397.554596 356.123047,401.408722 
	C357.237213,405.674255 360.043549,407.807800 364.408325,407.926208 
	C367.893738,408.020752 371.380280,408.072357 374.866333,408.143066 
z"/>
<path fill="#B5BDCA" opacity="1.000000" stroke="none" 
	d="
M147.000000,432.119324 
	C136.177124,432.116241 125.854027,432.152405 115.531464,432.093781 
	C109.840050,432.061432 106.405487,429.440979 106.244881,425.218994 
	C106.085342,421.025116 110.027718,417.241943 115.347740,417.205688 
	C134.493683,417.075256 153.641144,417.136505 172.787796,417.198822 
	C174.245331,417.203552 175.778305,417.589966 177.142487,418.134125 
	C180.667923,419.540588 182.323929,422.276001 181.813339,426.042236 
	C181.287582,429.920471 178.770477,431.947723 174.970276,432.004242 
	C165.814972,432.140472 156.656937,432.092621 147.000000,432.119324 
z"/>
<path fill="#4F5B62" opacity="1.000000" stroke="none" 
	d="
M359.068787,210.464981 
	C353.029083,212.442261 346.979797,214.239319 340.838379,215.629181 
	C337.085602,216.478455 336.571014,213.305328 335.951843,210.710648 
	C332.426605,195.938736 326.324036,182.372360 317.138245,170.236893 
	C313.847046,165.888855 310.537445,161.554733 307.161407,156.850342 
	C330.689697,168.268661 347.912354,186.230011 359.068787,210.464981 
z"/>
<path fill="#B5BDCA" opacity="1.000000" stroke="none" 
	d="
M133.118042,442.898438 
	C142.096466,442.904236 150.591400,442.926300 159.086258,442.910248 
	C163.464661,442.901978 166.593658,444.420868 167.026459,449.270416 
	C167.428574,453.776398 165.120590,457.260986 160.248245,457.455353 
	C149.450531,457.886108 138.615234,457.843292 127.813446,457.468903 
	C123.577141,457.322083 120.753151,454.524536 121.038063,449.784027 
	C121.320793,445.079865 124.175400,443.075836 128.637558,442.946930 
	C129.969238,442.908447 131.302170,442.913666 133.118042,442.898438 
z"/>
<path fill="#62A6FD" opacity="1.000000" stroke="none" 
	d="
M374.951233,408.055267 
	C371.380280,408.072357 367.893738,408.020752 364.408325,407.926208 
	C360.043549,407.807800 357.237213,405.674255 356.123047,401.408722 
	C355.116302,397.554596 354.112854,393.699615 353.070618,389.462830 
	C360.079529,389.026611 367.125763,388.972595 374.614929,389.427490 
	C375.107544,395.888550 375.157257,401.840698 375.206970,407.792847 
	C375.206970,407.792847 375.036163,407.967468 374.951233,408.055267 
z"/>
<path fill="#21628E" opacity="1.000000" stroke="none" 
	d="
M375.590210,407.800873 
	C375.157257,401.840698 375.107544,395.888550 375.089752,389.467590 
	C379.062042,388.955750 383.002411,388.912750 387.386536,388.935181 
	C386.799561,392.980804 385.727081,396.950714 384.749054,400.943787 
	C383.617065,405.565399 380.922211,408.106781 375.590210,407.800873 
z"/>
<path fill="#62A6FD" opacity="1.000000" stroke="none" 
	d="
M119.023376,35.991997 
	C131.484131,35.994015 143.449936,36.081440 155.413376,35.951923 
	C159.617966,35.906403 161.342896,37.077202 159.760696,41.509686 
	C158.479599,45.098621 157.752701,48.881359 156.601105,52.521545 
	C155.059570,57.394249 151.486359,59.836998 146.498764,59.912811 
	C138.026199,60.041595 129.547684,60.060356 121.076385,59.890484 
	C115.685501,59.782383 111.956001,57.030342 110.422523,51.746601 
	C109.044144,46.997295 107.825317,42.201683 106.148819,35.992023 
	C110.838661,35.992023 114.683075,35.992023 119.023376,35.991997 
z"/>
<path fill="#D3E6F1" opacity="1.000000" stroke="none" 
	d="
M187.175705,262.968048 
	C183.388046,217.243332 221.539505,180.985214 267.723846,187.355682 
	C271.934143,192.882462 276.047058,197.764435 279.064484,203.249084 
	C289.629303,222.452469 290.121338,242.481186 282.721924,263.074158 
	C282.021820,263.533997 281.559296,263.847260 280.657349,264.100220 
	C270.476135,264.144531 262.346313,259.977051 254.295609,254.963455 
	C242.336166,247.515701 229.876694,247.540344 218.146194,255.364380 
	C208.587128,261.740143 198.704224,265.323181 187.175705,262.968048 
z"/>
<path fill="#A0CAFE" opacity="1.000000" stroke="none" 
	d="
M187.116364,263.387878 
	C198.704224,265.323181 208.587128,261.740143 218.146194,255.364380 
	C229.876694,247.540344 242.336166,247.515701 254.295609,254.963455 
	C262.346313,259.977051 270.476135,264.144531 280.628784,264.469849 
	C280.537689,266.465393 280.261353,268.151703 279.498444,269.577698 
	C272.572510,282.523438 262.579529,292.349609 249.575378,299.241943 
	C236.496704,306.173828 222.443848,307.490173 208.025558,307.094421 
	C195.744507,295.228790 188.771454,280.791931 187.116364,263.387878 
z"/>
<path fill="#81B8FC" opacity="1.000000" stroke="none" 
	d="
M208.166000,307.388916 
	C222.443848,307.490173 236.496704,306.173828 249.575378,299.241943 
	C262.579529,292.349609 272.572510,282.523438 279.498444,269.577698 
	C280.261353,268.151703 280.537689,266.465393 281.068237,264.530182 
	C281.559296,263.847260 282.021820,263.533997 283.120544,263.075562 
	C285.808990,262.431366 288.045227,262.294739 289.878204,261.363983 
	C294.964417,258.781281 299.882751,255.868057 304.902039,253.547577 
	C304.960327,261.928680 304.956207,269.847870 305.015320,277.766541 
	C305.075745,285.860229 307.474854,288.857635 315.437988,291.043976 
	C316.372986,291.300659 317.245667,291.784546 318.147217,292.163147 
	C308.044037,309.892548 292.854614,321.234833 273.134796,325.488983 
	C248.724564,330.755066 226.773636,325.058228 208.166000,307.388916 
z"/>
<path fill="#8E9AAD" opacity="1.000000" stroke="none" 
	d="
M318.510193,292.181213 
	C317.245667,291.784546 316.372986,291.300659 315.437988,291.043976 
	C307.474854,288.857635 305.075745,285.860229 305.015320,277.766541 
	C304.956207,269.847870 304.960327,261.928680 304.939087,253.072586 
	C304.964996,246.475327 304.960876,240.814926 305.018768,235.155182 
	C305.095795,227.626221 307.360321,224.589966 314.388733,222.371765 
	C315.642792,221.975983 316.847839,221.424866 318.075500,220.945496 
	C323.097107,219.941696 328.152618,219.079041 333.128082,217.883286 
	C336.327148,217.114441 337.805603,217.999100 338.021332,221.323959 
	C338.278259,225.283966 338.747894,229.230179 339.121979,233.848663 
	C339.118591,234.514984 338.963684,234.939316 338.963684,234.939316 
	C322.845490,238.050125 322.843567,238.050125 322.846741,254.404953 
	C322.847595,258.890228 322.885284,263.375580 322.866241,267.860718 
	C322.850647,271.526123 324.125854,274.494202 327.766907,275.701752 
	C331.220825,276.847229 331.043793,278.854401 329.724304,281.465912 
	C328.526093,283.837555 327.226807,286.177307 326.267517,288.645905 
	C324.865723,292.253082 322.521149,293.475403 318.510193,292.181213 
z"/>
<path fill="#A9CCE3" opacity="1.000000" stroke="none" 
	d="
M317.942749,220.630600 
	C316.847839,221.424866 315.642792,221.975983 314.388733,222.371765 
	C307.360321,224.589966 305.095795,227.626221 305.018768,235.155182 
	C304.960876,240.814926 304.964996,246.475327 304.904480,252.610428 
	C299.882751,255.868057 294.964417,258.781281 289.878204,261.363983 
	C288.045227,262.294739 285.808990,262.431366 283.358154,262.928986 
	C290.121338,242.481186 289.629303,222.452469 279.064484,203.249084 
	C276.047058,197.764435 271.934143,192.882462 268.141632,187.450195 
	C285.609741,189.251419 299.646912,197.919785 311.135956,211.068878 
	C313.626282,213.919037 315.598938,217.221542 317.942749,220.630600 
z"/>
<path fill="#4F5B62" opacity="1.000000" stroke="none" 
	d="
M337.928986,278.223236 
	C333.016235,277.550964 331.708954,275.527893 333.583588,271.039398 
	C335.155884,267.274902 335.850952,263.143982 336.807556,259.640045 
	C338.674591,261.039093 340.362335,262.950439 342.472748,263.760590 
	C348.176270,265.949921 350.722443,269.030975 349.583740,273.293213 
	C348.396454,277.737396 344.608124,279.426758 337.928986,278.223236 
z"/>
<path fill="#4F5B62" opacity="1.000000" stroke="none" 
	d="
M338.969879,235.403595 
	C338.963684,234.939316 339.118591,234.514984 339.189758,234.300629 
	C340.908600,234.197327 342.617859,234.066193 344.191803,234.466751 
	C348.233398,235.495331 350.564545,239.426208 349.608215,243.223083 
	C348.664093,246.971481 343.995392,250.422943 340.566956,249.505203 
	C339.710144,249.275848 338.808350,247.432709 338.760376,246.296127 
	C338.614075,242.829239 338.874146,239.345215 338.969879,235.403595 
z"/>
</svg>